<svg width="41" height="40" viewBox="0 0 41 40" fill="none" xmlns="http://www.w3.org/2000/svg">
<rect opacity="0.2" x="0.26355" width="40" height="40" rx="20" fill="#FDB52A"/>
<path d="M20.0008 12C18.3342 12.0019 16.7365 12.6648 15.558 13.8432C14.3796 15.0216 13.7167 16.6194 13.7148 18.286C13.7148 23.6647 19.4294 27.7292 19.6722 27.9006C19.7695 27.9654 19.8839 28 20.0008 28C20.1177 28 20.2321 27.9654 20.3294 27.9006C20.5723 27.7292 26.2868 23.6647 26.2868 18.286C26.2849 16.6194 25.622 15.0216 24.4436 13.8432C23.2651 12.6648 21.6674 12.0019 20.0008 12V12ZM20.0008 16.0002C20.4529 16.0002 20.8948 16.1342 21.2707 16.3854C21.6466 16.6366 21.9396 16.9935 22.1126 17.4112C22.2856 17.8289 22.3309 18.2885 22.2427 18.7319C22.1545 19.1753 21.9368 19.5826 21.6171 19.9023C21.2974 20.2219 20.8901 20.4396 20.4467 20.5278C20.0033 20.616 19.5437 20.5708 19.1261 20.3978C18.7084 20.2248 18.3514 19.9318 18.1002 19.5559C17.8491 19.18 17.715 18.738 17.715 18.286C17.715 17.6797 17.9558 17.0983 18.3845 16.6697C18.8132 16.241 19.3946 16.0002 20.0008 16.0002V16.0002Z" fill="#FDB52A"/>
</svg>
