<svg width="41" height="40" viewBox="0 0 41 40" fill="none" xmlns="http://www.w3.org/2000/svg">
<rect opacity="0.2" x="0.180176" width="40" height="40" rx="20" fill="#086CD9"/>
<path d="M26.9494 15.378H23.8186C23.6705 14.5204 23.2243 13.7426 22.5586 13.182C21.8928 12.6214 21.0505 12.314 20.1802 12.314C19.3099 12.314 18.4675 12.6214 17.8018 13.182C17.1361 13.7426 16.6898 14.5204 16.5417 15.378H13.4109C13.0845 15.378 12.7715 15.5077 12.5407 15.7385C12.3098 15.9693 12.1802 16.2823 12.1802 16.6088V26.4549C12.1802 26.7813 12.3098 27.0944 12.5407 27.3252C12.7715 27.556 13.0845 27.6857 13.4109 27.6857H26.9494C27.2758 27.6857 27.5889 27.556 27.8197 27.3252C28.0505 27.0944 28.1802 26.7813 28.1802 26.4549V16.6088C28.1802 16.2823 28.0505 15.9693 27.8197 15.7385C27.5889 15.5077 27.2758 15.378 26.9494 15.378V15.378ZM20.1802 13.5318C20.7258 13.5329 21.2556 13.7146 21.6871 14.0486C22.1185 14.3826 22.4271 14.8501 22.5648 15.378H17.7956C17.9332 14.8501 18.2419 14.3826 18.6733 14.0486C19.1047 13.7146 19.6346 13.5329 20.1802 13.5318V13.5318Z" fill="#086CD9"/>
</svg>
