<svg width="41" height="40" viewBox="0 0 41 40" fill="none" xmlns="http://www.w3.org/2000/svg">
<rect opacity="0.2" x="0.26355" width="39.8159" height="40" rx="19.908" fill="#bbf83b"/>
<path d="M17.3356 19.4798C17.8453 19.4798 18.3126 19.243 18.6907 18.8792C18.2942 18.1682 18.0678 17.3638 18.0678 16.592C18.0678 15.9374 18.2257 15.32 18.5037 14.7748C18.159 14.5634 17.756 14.4395 17.3239 14.4395C16.0606 14.4395 15.0367 15.4783 15.0367 16.7595C15.0367 18.0408 16.0724 19.4798 17.3356 19.4798Z" fill="#bbf83b"/>
<path d="M18.8738 20.58C18.6506 20.5318 18.4195 20.5052 18.182 20.5052H16.4811C14.6712 20.5052 13.2037 21.9772 13.2037 23.7931L13.2114 24.1819C13.2114 24.6892 13.6215 25.1006 14.1272 25.1006H15.8043C15.8866 23.0803 17.1248 21.3579 18.8738 20.58Z" fill="#bbf83b"/>
<path d="M22.016 19.9647C23.5822 19.9647 24.8376 18.1804 24.8376 16.5917C24.8376 15.003 23.5678 13.715 22.0016 13.715C20.4353 13.715 19.1655 15.003 19.1655 16.5917C19.1657 18.1804 20.4498 19.9647 22.016 19.9647Z" fill="#bbf83b"/>
<path d="M27.1296 25.3137C27.1296 23.0619 25.3101 21.2366 23.0658 21.2366H20.9567C18.7124 21.2366 16.8929 23.0619 16.8929 25.3137L16.9026 25.7958C16.9026 26.4248 17.4109 26.9349 18.0382 26.9349H26.004C26.631 26.9349 27.1395 26.4248 27.1395 25.7958L27.1296 25.3137Z" fill="#bbf83b"/>
</svg>
